<?xml version="1.0" encoding="UTF-8" standalone="no"?>
<!DOCTYPE svg PUBLIC "-//W3C//DTD SVG 1.1//EN"
 "http://www.w3.org/Graphics/SVG/1.1/DTD/svg11.dtd">
<!-- Generated by graphviz version 2.40.1 (20161225.0304)
 -->
<!-- Title: G Pages: 1 -->
<svg width="1467pt" height="1979pt"
 viewBox="0.00 0.00 1466.56 1979.18" xmlns="http://www.w3.org/2000/svg" xmlns:xlink="http://www.w3.org/1999/xlink">
<g id="graph0" class="graph" transform="scale(1 1) rotate(0) translate(4 1975.1806)">
<title>G</title>
<polygon fill="#ffffff" stroke="transparent" points="-4,4 -4,-1975.1806 1462.5582,-1975.1806 1462.5582,4 -4,4"/>
<g id="clust1" class="cluster">
<title>cluster_Global</title>
<path fill="none" stroke="#c0c0c0" d="M20,-57.1806C20,-57.1806 1438.5582,-57.1806 1438.5582,-57.1806 1444.5582,-57.1806 1450.5582,-63.1806 1450.5582,-69.1806 1450.5582,-69.1806 1450.5582,-1951.1806 1450.5582,-1951.1806 1450.5582,-1957.1806 1444.5582,-1963.1806 1438.5582,-1963.1806 1438.5582,-1963.1806 20,-1963.1806 20,-1963.1806 14,-1963.1806 8,-1957.1806 8,-1951.1806 8,-1951.1806 8,-69.1806 8,-69.1806 8,-63.1806 14,-57.1806 20,-57.1806"/>
<text text-anchor="middle" x="729.2791" y="-1950.3806" font-family="Times,serif" font-size="11.00" fill="#c0c0c0">Global</text>
</g>
<g id="clust2" class="cluster">
<title>cluster_\Psl</title>
<path fill="none" stroke="#c0c0c0" d="M341.0704,-109.1806C341.0704,-109.1806 1430.5582,-109.1806 1430.5582,-109.1806 1436.5582,-109.1806 1442.5582,-115.1806 1442.5582,-121.1806 1442.5582,-121.1806 1442.5582,-1771.1806 1442.5582,-1771.1806 1442.5582,-1777.1806 1436.5582,-1783.1806 1430.5582,-1783.1806 1430.5582,-1783.1806 341.0704,-1783.1806 341.0704,-1783.1806 335.0704,-1783.1806 329.0704,-1777.1806 329.0704,-1771.1806 329.0704,-1771.1806 329.0704,-121.1806 329.0704,-121.1806 329.0704,-115.1806 335.0704,-109.1806 341.0704,-109.1806"/>
<text text-anchor="middle" x="885.8143" y="-1770.3806" font-family="Times,serif" font-size="11.00" fill="#c0c0c0">Psl</text>
</g>
<g id="clust4" class="cluster">
<title>cluster_\Psl\Collection</title>
<path fill="none" stroke="#c0c0c0" d="M350.0704,-1441.1806C350.0704,-1441.1806 1401.0582,-1441.1806 1401.0582,-1441.1806 1407.0582,-1441.1806 1413.0582,-1447.1806 1413.0582,-1453.1806 1413.0582,-1453.1806 1413.0582,-1609.1806 1413.0582,-1609.1806 1413.0582,-1615.1806 1407.0582,-1621.1806 1401.0582,-1621.1806 1401.0582,-1621.1806 350.0704,-1621.1806 350.0704,-1621.1806 344.0704,-1621.1806 338.0704,-1615.1806 338.0704,-1609.1806 338.0704,-1609.1806 338.0704,-1453.1806 338.0704,-1453.1806 338.0704,-1447.1806 344.0704,-1441.1806 350.0704,-1441.1806"/>
<text text-anchor="middle" x="875.5643" y="-1608.3806" font-family="Times,serif" font-size="11.00" fill="#c0c0c0">Collection</text>
</g>
<g id="clust5" class="cluster">
<title>cluster_\Psl\DataStructure</title>
<path fill="none" stroke="#c0c0c0" d="M993.0582,-1629.1806C993.0582,-1629.1806 1411.0582,-1629.1806 1411.0582,-1629.1806 1417.0582,-1629.1806 1423.0582,-1635.1806 1423.0582,-1641.1806 1423.0582,-1641.1806 1423.0582,-1743.1806 1423.0582,-1743.1806 1423.0582,-1749.1806 1417.0582,-1755.1806 1411.0582,-1755.1806 1411.0582,-1755.1806 993.0582,-1755.1806 993.0582,-1755.1806 987.0582,-1755.1806 981.0582,-1749.1806 981.0582,-1743.1806 981.0582,-1743.1806 981.0582,-1641.1806 981.0582,-1641.1806 981.0582,-1635.1806 987.0582,-1629.1806 993.0582,-1629.1806"/>
<text text-anchor="middle" x="1202.0582" y="-1742.3806" font-family="Times,serif" font-size="11.00" fill="#c0c0c0">DataStructure</text>
</g>
<g id="clust7" class="cluster">
<title>cluster_\Psl\Exception</title>
<path fill="none" stroke="#c0c0c0" d="M363.5704,-1307.1806C363.5704,-1307.1806 832.0582,-1307.1806 832.0582,-1307.1806 838.0582,-1307.1806 844.0582,-1313.1806 844.0582,-1319.1806 844.0582,-1319.1806 844.0582,-1421.1806 844.0582,-1421.1806 844.0582,-1427.1806 838.0582,-1433.1806 832.0582,-1433.1806 832.0582,-1433.1806 363.5704,-1433.1806 363.5704,-1433.1806 357.5704,-1433.1806 351.5704,-1427.1806 351.5704,-1421.1806 351.5704,-1421.1806 351.5704,-1319.1806 351.5704,-1319.1806 351.5704,-1313.1806 357.5704,-1307.1806 363.5704,-1307.1806"/>
<text text-anchor="middle" x="597.8143" y="-1420.3806" font-family="Times,serif" font-size="11.00" fill="#c0c0c0">Exception</text>
</g>
<g id="clust13" class="cluster">
<title>cluster_\Psl\Json</title>
<path fill="none" stroke="#c0c0c0" d="M663.5582,-1021.1806C663.5582,-1021.1806 1107.5582,-1021.1806 1107.5582,-1021.1806 1113.5582,-1021.1806 1119.5582,-1027.1806 1119.5582,-1033.1806 1119.5582,-1033.1806 1119.5582,-1171.1806 1119.5582,-1171.1806 1119.5582,-1177.1806 1113.5582,-1183.1806 1107.5582,-1183.1806 1107.5582,-1183.1806 663.5582,-1183.1806 663.5582,-1183.1806 657.5582,-1183.1806 651.5582,-1177.1806 651.5582,-1171.1806 651.5582,-1171.1806 651.5582,-1033.1806 651.5582,-1033.1806 651.5582,-1027.1806 657.5582,-1021.1806 663.5582,-1021.1806"/>
<text text-anchor="middle" x="885.5582" y="-1170.3806" font-family="Times,serif" font-size="11.00" fill="#c0c0c0">Json</text>
</g>
<g id="clust14" class="cluster">
<title>cluster_\Psl\Json\Exception</title>
<path fill="none" stroke="#c0c0c0" d="M671.5582,-1029.1806C671.5582,-1029.1806 1099.5582,-1029.1806 1099.5582,-1029.1806 1105.5582,-1029.1806 1111.5582,-1035.1806 1111.5582,-1041.1806 1111.5582,-1041.1806 1111.5582,-1143.1806 1111.5582,-1143.1806 1111.5582,-1149.1806 1105.5582,-1155.1806 1099.5582,-1155.1806 1099.5582,-1155.1806 671.5582,-1155.1806 671.5582,-1155.1806 665.5582,-1155.1806 659.5582,-1149.1806 659.5582,-1143.1806 659.5582,-1143.1806 659.5582,-1041.1806 659.5582,-1041.1806 659.5582,-1035.1806 665.5582,-1029.1806 671.5582,-1029.1806"/>
<text text-anchor="middle" x="885.5582" y="-1142.3806" font-family="Times,serif" font-size="11.00" fill="#c0c0c0">Exception</text>
</g>
<g id="clust15" class="cluster">
<title>cluster_\Psl\Math</title>
<path fill="none" stroke="#c0c0c0" d="M663.5582,-905.1806C663.5582,-905.1806 1422.5582,-905.1806 1422.5582,-905.1806 1428.5582,-905.1806 1434.5582,-911.1806 1434.5582,-917.1806 1434.5582,-917.1806 1434.5582,-1001.1806 1434.5582,-1001.1806 1434.5582,-1007.1806 1428.5582,-1013.1806 1422.5582,-1013.1806 1422.5582,-1013.1806 663.5582,-1013.1806 663.5582,-1013.1806 657.5582,-1013.1806 651.5582,-1007.1806 651.5582,-1001.1806 651.5582,-1001.1806 651.5582,-917.1806 651.5582,-917.1806 651.5582,-911.1806 657.5582,-905.1806 663.5582,-905.1806"/>
<text text-anchor="middle" x="1043.0582" y="-1000.3806" font-family="Times,serif" font-size="11.00" fill="#c0c0c0">Math</text>
</g>
<g id="clust16" class="cluster">
<title>cluster_\Psl\Math\Exception</title>
<path fill="none" stroke="#c0c0c0" d="M671.5582,-913.1806C671.5582,-913.1806 1414.5582,-913.1806 1414.5582,-913.1806 1420.5582,-913.1806 1426.5582,-919.1806 1426.5582,-925.1806 1426.5582,-925.1806 1426.5582,-973.1806 1426.5582,-973.1806 1426.5582,-979.1806 1420.5582,-985.1806 1414.5582,-985.1806 1414.5582,-985.1806 671.5582,-985.1806 671.5582,-985.1806 665.5582,-985.1806 659.5582,-979.1806 659.5582,-973.1806 659.5582,-973.1806 659.5582,-925.1806 659.5582,-925.1806 659.5582,-919.1806 665.5582,-913.1806 671.5582,-913.1806"/>
<text text-anchor="middle" x="1043.0582" y="-972.3806" font-family="Times,serif" font-size="11.00" fill="#c0c0c0">Exception</text>
</g>
<g id="clust17" class="cluster">
<title>cluster_\Psl\Observer</title>
<path fill="none" stroke="#c0c0c0" d="M1271.0582,-771.1806C1271.0582,-771.1806 1394.0582,-771.1806 1394.0582,-771.1806 1400.0582,-771.1806 1406.0582,-777.1806 1406.0582,-783.1806 1406.0582,-783.1806 1406.0582,-885.1806 1406.0582,-885.1806 1406.0582,-891.1806 1400.0582,-897.1806 1394.0582,-897.1806 1394.0582,-897.1806 1271.0582,-897.1806 1271.0582,-897.1806 1265.0582,-897.1806 1259.0582,-891.1806 1259.0582,-885.1806 1259.0582,-885.1806 1259.0582,-783.1806 1259.0582,-783.1806 1259.0582,-777.1806 1265.0582,-771.1806 1271.0582,-771.1806"/>
<text text-anchor="middle" x="1332.5582" y="-884.3806" font-family="Times,serif" font-size="11.00" fill="#c0c0c0">Observer</text>
</g>
<g id="clust20" class="cluster">
<title>cluster_\Psl\Result</title>
<path fill="none" stroke="#c0c0c0" d="M1277.5582,-691.1806C1277.5582,-691.1806 1387.5582,-691.1806 1387.5582,-691.1806 1393.5582,-691.1806 1399.5582,-697.1806 1399.5582,-703.1806 1399.5582,-703.1806 1399.5582,-751.1806 1399.5582,-751.1806 1399.5582,-757.1806 1393.5582,-763.1806 1387.5582,-763.1806 1387.5582,-763.1806 1277.5582,-763.1806 1277.5582,-763.1806 1271.5582,-763.1806 1265.5582,-757.1806 1265.5582,-751.1806 1265.5582,-751.1806 1265.5582,-703.1806 1265.5582,-703.1806 1265.5582,-697.1806 1271.5582,-691.1806 1277.5582,-691.1806"/>
<text text-anchor="middle" x="1332.5582" y="-750.3806" font-family="Times,serif" font-size="11.00" fill="#c0c0c0">Result</text>
</g>
<g id="clust21" class="cluster">
<title>cluster_\Psl\SecureRandom</title>
<path fill="none" stroke="#c0c0c0" d="M349.0704,-1191.1806C349.0704,-1191.1806 843.5582,-1191.1806 843.5582,-1191.1806 849.5582,-1191.1806 855.5582,-1197.1806 855.5582,-1203.1806 855.5582,-1203.1806 855.5582,-1287.1806 855.5582,-1287.1806 855.5582,-1293.1806 849.5582,-1299.1806 843.5582,-1299.1806 843.5582,-1299.1806 349.0704,-1299.1806 349.0704,-1299.1806 343.0704,-1299.1806 337.0704,-1293.1806 337.0704,-1287.1806 337.0704,-1287.1806 337.0704,-1203.1806 337.0704,-1203.1806 337.0704,-1197.1806 343.0704,-1191.1806 349.0704,-1191.1806"/>
<text text-anchor="middle" x="596.3143" y="-1286.3806" font-family="Times,serif" font-size="11.00" fill="#c0c0c0">SecureRandom</text>
</g>
<g id="clust22" class="cluster">
<title>cluster_\Psl\SecureRandom\Exception</title>
<path fill="none" stroke="#c0c0c0" d="M357.0704,-1199.1806C357.0704,-1199.1806 835.5582,-1199.1806 835.5582,-1199.1806 841.5582,-1199.1806 847.5582,-1205.1806 847.5582,-1211.1806 847.5582,-1211.1806 847.5582,-1259.1806 847.5582,-1259.1806 847.5582,-1265.1806 841.5582,-1271.1806 835.5582,-1271.1806 835.5582,-1271.1806 357.0704,-1271.1806 357.0704,-1271.1806 351.0704,-1271.1806 345.0704,-1265.1806 345.0704,-1259.1806 345.0704,-1259.1806 345.0704,-1211.1806 345.0704,-1211.1806 345.0704,-1205.1806 351.0704,-1199.1806 357.0704,-1199.1806"/>
<text text-anchor="middle" x="596.3143" y="-1258.3806" font-family="Times,serif" font-size="11.00" fill="#c0c0c0">Exception</text>
</g>
<g id="clust26" class="cluster">
<title>cluster_\Psl\Type</title>
<path fill="none" stroke="#c0c0c0" d="M1006.5582,-117.1806C1006.5582,-117.1806 1405.5582,-117.1806 1405.5582,-117.1806 1411.5582,-117.1806 1417.5582,-123.1806 1417.5582,-129.1806 1417.5582,-129.1806 1417.5582,-671.1806 1417.5582,-671.1806 1417.5582,-677.1806 1411.5582,-683.1806 1405.5582,-683.1806 1405.5582,-683.1806 1006.5582,-683.1806 1006.5582,-683.1806 1000.5582,-683.1806 994.5582,-677.1806 994.5582,-671.1806 994.5582,-671.1806 994.5582,-129.1806 994.5582,-129.1806 994.5582,-123.1806 1000.5582,-117.1806 1006.5582,-117.1806"/>
<text text-anchor="middle" x="1206.0582" y="-670.3806" font-family="Times,serif" font-size="11.00" fill="#c0c0c0">Type</text>
</g>
<g id="clust27" class="cluster">
<title>cluster_\Psl\Type\Exception</title>
<path fill="none" stroke="#c0c0c0" d="M1267.5582,-125.1806C1267.5582,-125.1806 1397.5582,-125.1806 1397.5582,-125.1806 1403.5582,-125.1806 1409.5582,-131.1806 1409.5582,-137.1806 1409.5582,-137.1806 1409.5582,-185.1806 1409.5582,-185.1806 1409.5582,-191.1806 1403.5582,-197.1806 1397.5582,-197.1806 1397.5582,-197.1806 1267.5582,-197.1806 1267.5582,-197.1806 1261.5582,-197.1806 1255.5582,-191.1806 1255.5582,-185.1806 1255.5582,-185.1806 1255.5582,-137.1806 1255.5582,-137.1806 1255.5582,-131.1806 1261.5582,-125.1806 1267.5582,-125.1806"/>
<text text-anchor="middle" x="1332.5582" y="-184.3806" font-family="Times,serif" font-size="11.00" fill="#c0c0c0">Exception</text>
</g>
<g id="clust28" class="cluster">
<title>cluster_\Psl\Type\Internal</title>
<path fill="none" stroke="#c0c0c0" d="M1287.5582,-205.1806C1287.5582,-205.1806 1377.5582,-205.1806 1377.5582,-205.1806 1383.5582,-205.1806 1389.5582,-211.1806 1389.5582,-217.1806 1389.5582,-217.1806 1389.5582,-643.1806 1389.5582,-643.1806 1389.5582,-649.1806 1383.5582,-655.1806 1377.5582,-655.1806 1377.5582,-655.1806 1287.5582,-655.1806 1287.5582,-655.1806 1281.5582,-655.1806 1275.5582,-649.1806 1275.5582,-643.1806 1275.5582,-643.1806 1275.5582,-217.1806 1275.5582,-217.1806 1275.5582,-211.1806 1281.5582,-205.1806 1287.5582,-205.1806"/>
<text text-anchor="middle" x="1332.5582" y="-642.3806" font-family="Times,serif" font-size="11.00" fill="#c0c0c0">Internal</text>
</g>
<g id="clust29" class="cluster">
<title>cluster_Global\Psl</title>
<path fill="none" stroke="#c0c0c0" d="M970.8137,-1791.1806C970.8137,-1791.1806 1118.3028,-1791.1806 1118.3028,-1791.1806 1124.3028,-1791.1806 1130.3028,-1797.1806 1130.3028,-1803.1806 1130.3028,-1803.1806 1130.3028,-1923.1806 1130.3028,-1923.1806 1130.3028,-1929.1806 1124.3028,-1935.1806 1118.3028,-1935.1806 1118.3028,-1935.1806 970.8137,-1935.1806 970.8137,-1935.1806 964.8137,-1935.1806 958.8137,-1929.1806 958.8137,-1923.1806 958.8137,-1923.1806 958.8137,-1803.1806 958.8137,-1803.1806 958.8137,-1797.1806 964.8137,-1791.1806 970.8137,-1791.1806"/>
<text text-anchor="middle" x="1044.5582" y="-1922.3806" font-family="Times,serif" font-size="11.00" fill="#c0c0c0">Psl</text>
</g>
<g id="clust30" class="cluster">
<title>cluster_Global\Psl\Type</title>
<path fill="none" stroke="#c0c0c0" d="M978.8137,-1799.1806C978.8137,-1799.1806 1110.3028,-1799.1806 1110.3028,-1799.1806 1116.3028,-1799.1806 1122.3028,-1805.1806 1122.3028,-1811.1806 1122.3028,-1811.1806 1122.3028,-1895.1806 1122.3028,-1895.1806 1122.3028,-1901.1806 1116.3028,-1907.1806 1110.3028,-1907.1806 1110.3028,-1907.1806 978.8137,-1907.1806 978.8137,-1907.1806 972.8137,-1907.1806 966.8137,-1901.1806 966.8137,-1895.1806 966.8137,-1895.1806 966.8137,-1811.1806 966.8137,-1811.1806 966.8137,-1805.1806 972.8137,-1799.1806 978.8137,-1799.1806"/>
<text text-anchor="middle" x="1044.5582" y="-1894.3806" font-family="Times,serif" font-size="11.00" fill="#c0c0c0">Type</text>
</g>
<g id="clust31" class="cluster">
<title>cluster_Global\Psl\Type\Internal</title>
<path fill="none" stroke="#c0c0c0" d="M986.8137,-1807.1806C986.8137,-1807.1806 1102.3028,-1807.1806 1102.3028,-1807.1806 1108.3028,-1807.1806 1114.3028,-1813.1806 1114.3028,-1819.1806 1114.3028,-1819.1806 1114.3028,-1867.1806 1114.3028,-1867.1806 1114.3028,-1873.1806 1108.3028,-1879.1806 1102.3028,-1879.1806 1102.3028,-1879.1806 986.8137,-1879.1806 986.8137,-1879.1806 980.8137,-1879.1806 974.8137,-1873.1806 974.8137,-1867.1806 974.8137,-1867.1806 974.8137,-1819.1806 974.8137,-1819.1806 974.8137,-1813.1806 980.8137,-1807.1806 986.8137,-1807.1806"/>
<text text-anchor="middle" x="1044.5582" y="-1866.3806" font-family="Times,serif" font-size="11.00" fill="#c0c0c0">Internal</text>
</g>
<!-- \\Psl\\Collection\\AccessibleCollectionInterface -->
<g id="node1" class="node">
<title>\\Psl\\Collection\\AccessibleCollectionInterface</title>
<polygon fill="none" stroke="#000000" points="842.5582,-1485.1806 630.5582,-1485.1806 630.5582,-1449.1806 842.5582,-1449.1806 842.5582,-1485.1806"/>
<text text-anchor="middle" x="736.5582" y="-1464.3806" font-family="Courier,monospace" font-size="11.00" fill="#000000">AccessibleCollectionInterface</text>
</g>
<!-- \\Psl\\Collection\\CollectionInterface -->
<g id="node2" class="node">
<title>\\Psl\\Collection\\CollectionInterface</title>
<polygon fill="none" stroke="#000000" points="494.5704,-1539.1806 349.5704,-1539.1806 349.5704,-1503.1806 494.5704,-1503.1806 494.5704,-1539.1806"/>
<text text-anchor="middle" x="422.0704" y="-1518.3806" font-family="Courier,monospace" font-size="11.00" fill="#000000">CollectionInterface</text>
</g>
<!-- \\Psl\\Collection\\AccessibleCollectionInterface&#45;&gt;\\Psl\\Collection\\CollectionInterface -->
<g id="edge23" class="edge">
<title>\\Psl\\Collection\\AccessibleCollectionInterface&#45;&gt;\\Psl\\Collection\\CollectionInterface</title>
<path fill="none" stroke="#000000" d="M631.4011,-1485.2369C590.2585,-1492.3014 543.7527,-1500.2868 505.0429,-1506.9336"/>
<polygon fill="none" stroke="#000000" points="504.1249,-1503.5399 494.8615,-1508.6818 505.3096,-1510.4389 504.1249,-1503.5399"/>
</g>
<!-- \\Psl\\Collection\\IndexAccessInterface -->
<g id="node3" class="node">
<title>\\Psl\\Collection\\IndexAccessInterface</title>
<polygon fill="none" stroke="#000000" points="498.0704,-1593.1806 346.0704,-1593.1806 346.0704,-1557.1806 498.0704,-1557.1806 498.0704,-1593.1806"/>
<text text-anchor="middle" x="422.0704" y="-1572.3806" font-family="Courier,monospace" font-size="11.00" fill="#000000">IndexAccessInterface</text>
</g>
<!-- \\Psl\\Collection\\AccessibleCollectionInterface&#45;&gt;\\Psl\\Collection\\IndexAccessInterface -->
<g id="edge24" class="edge">
<title>\\Psl\\Collection\\AccessibleCollectionInterface&#45;&gt;\\Psl\\Collection\\IndexAccessInterface</title>
<path fill="none" stroke="#000000" d="M652.7046,-1485.2112C645.0734,-1487.8413 637.5811,-1490.8188 630.5582,-1494.1806 594.4789,-1511.4515 595.0916,-1531.8921 558.5582,-1548.1806 542.8825,-1555.1697 525.3938,-1560.3591 508.3062,-1564.2094"/>
<polygon fill="none" stroke="#000000" points="507.367,-1560.8305 498.3083,-1566.3251 508.8163,-1567.6788 507.367,-1560.8305"/>
</g>
<!-- Countable -->
<g id="node39" class="node">
<title>Countable</title>
<ellipse fill="none" stroke="#000000" cx="112.8414" cy="-1660.1806" rx="58.4896" ry="18"/>
<text text-anchor="middle" x="112.8414" y="-1656.4806" font-family="Times,serif" font-size="14.00" fill="#c0c0c0">Countable</text>
</g>
<!-- \\Psl\\Collection\\CollectionInterface&#45;&gt;Countable -->
<g id="edge25" class="edge">
<title>\\Psl\\Collection\\CollectionInterface&#45;&gt;Countable</title>
<path fill="none" stroke="#000000" d="M349.3889,-1530.2777C328.3249,-1534.3125 305.6165,-1540.0562 285.5825,-1548.1806 230.5497,-1570.498 174.187,-1611.0252 141.403,-1636.7237"/>
<polygon fill="none" stroke="#000000" points="138.8554,-1634.2771 133.1967,-1643.2342 143.206,-1639.7609 138.8554,-1634.2771"/>
</g>
<!-- IteratorAggregate -->
<g id="node40" class="node">
<title>IteratorAggregate</title>
<ellipse fill="none" stroke="#000000" cx="112.8414" cy="-1548.1806" rx="96.3833" ry="18"/>
<text text-anchor="middle" x="112.8414" y="-1544.4806" font-family="Times,serif" font-size="14.00" fill="#c0c0c0">IteratorAggregate</text>
</g>
<!-- \\Psl\\Collection\\CollectionInterface&#45;&gt;IteratorAggregate -->
<g id="edge26" class="edge">
<title>\\Psl\\Collection\\CollectionInterface&#45;&gt;IteratorAggregate</title>
<path fill="none" stroke="#000000" d="M349.5699,-1527.5109C307.9965,-1531.1409 255.2652,-1535.745 210.1277,-1539.6862"/>
<polygon fill="none" stroke="#000000" points="209.6824,-1536.2116 200.0248,-1540.5683 210.2914,-1543.1851 209.6824,-1536.2116"/>
</g>
<!-- JsonSerializable -->
<g id="node41" class="node">
<title>JsonSerializable</title>
<ellipse fill="none" stroke="#000000" cx="112.8414" cy="-1494.1806" rx="85.2851" ry="18"/>
<text text-anchor="middle" x="112.8414" y="-1490.4806" font-family="Times,serif" font-size="14.00" fill="#c0c0c0">JsonSerializable</text>
</g>
<!-- \\Psl\\Collection\\CollectionInterface&#45;&gt;JsonSerializable -->
<g id="edge27" class="edge">
<title>\\Psl\\Collection\\CollectionInterface&#45;&gt;JsonSerializable</title>
<path fill="none" stroke="#000000" d="M349.5699,-1514.8503C305.4146,-1510.9949 248.6722,-1506.0405 201.81,-1501.9488"/>
<polygon fill="none" stroke="#000000" points="201.9294,-1498.446 191.6629,-1501.0628 201.3205,-1505.4195 201.9294,-1498.446"/>
</g>
<!-- \\Psl\\Collection\\MapInterface -->
<g id="node4" class="node">
<title>\\Psl\\Collection\\MapInterface</title>
<polygon fill="none" stroke="#000000" points="1093.5582,-1485.1806 995.5582,-1485.1806 995.5582,-1449.1806 1093.5582,-1449.1806 1093.5582,-1485.1806"/>
<text text-anchor="middle" x="1044.5582" y="-1464.3806" font-family="Courier,monospace" font-size="11.00" fill="#000000">MapInterface</text>
</g>
<!-- \\Psl\\Collection\\MapInterface&#45;&gt;\\Psl\\Collection\\AccessibleCollectionInterface -->
<g id="edge28" class="edge">
<title>\\Psl\\Collection\\MapInterface&#45;&gt;\\Psl\\Collection\\AccessibleCollectionInterface</title>
<path fill="none" stroke="#000000" d="M995.4142,-1467.1806C957.042,-1467.1806 902.1293,-1467.1806 852.7461,-1467.1806"/>
<polygon fill="none" stroke="#000000" points="852.6256,-1463.6807 842.6255,-1467.1806 852.6255,-1470.6807 852.6256,-1463.6807"/>
</g>
<!-- \\Psl\\Collection\\MutableAccessibleCollectionInterface -->
<g id="node5" class="node">
<title>\\Psl\\Collection\\MutableAccessibleCollectionInterface</title>
<polygon fill="none" stroke="#000000" points="1174.5582,-1539.1806 914.5582,-1539.1806 914.5582,-1503.1806 1174.5582,-1503.1806 1174.5582,-1539.1806"/>
<text text-anchor="middle" x="1044.5582" y="-1518.3806" font-family="Courier,monospace" font-size="11.00" fill="#000000">MutableAccessibleCollectionInterface</text>
</g>
<!-- \\Psl\\Collection\\MutableAccessibleCollectionInterface&#45;&gt;\\Psl\\Collection\\AccessibleCollectionInterface -->
<g id="edge29" class="edge">
<title>\\Psl\\Collection\\MutableAccessibleCollectionInterface&#45;&gt;\\Psl\\Collection\\AccessibleCollectionInterface</title>
<path fill="none" stroke="#000000" d="M941.5705,-1503.1243C912.0324,-1497.9456 879.6716,-1492.2719 849.5652,-1486.9935"/>
<polygon fill="none" stroke="#000000" points="849.9032,-1483.4995 839.4489,-1485.2199 848.6943,-1490.3943 849.9032,-1483.4995"/>
</g>
<!-- \\Psl\\Collection\\MutableCollectionInterface -->
<g id="node6" class="node">
<title>\\Psl\\Collection\\MutableCollectionInterface</title>
<polygon fill="none" stroke="#000000" points="832.5582,-1539.1806 640.5582,-1539.1806 640.5582,-1503.1806 832.5582,-1503.1806 832.5582,-1539.1806"/>
<text text-anchor="middle" x="736.5582" y="-1518.3806" font-family="Courier,monospace" font-size="11.00" fill="#000000">MutableCollectionInterface</text>
</g>
<!-- \\Psl\\Collection\\MutableAccessibleCollectionInterface&#45;&gt;\\Psl\\Collection\\MutableCollectionInterface -->
<g id="edge30" class="edge">
<title>\\Psl\\Collection\\MutableAccessibleCollectionInterface&#45;&gt;\\Psl\\Collection\\MutableCollectionInterface</title>
<path fill="none" stroke="#000000" d="M914.3849,-1521.1806C890.5012,-1521.1806 865.834,-1521.1806 842.7564,-1521.1806"/>
<polygon fill="none" stroke="#000000" points="842.6234,-1517.6807 832.6234,-1521.1806 842.6234,-1524.6807 842.6234,-1517.6807"/>
</g>
<!-- \\Psl\\Collection\\MutableIndexAccessInterface -->
<g id="node7" class="node">
<title>\\Psl\\Collection\\MutableIndexAccessInterface</title>
<polygon fill="none" stroke="#000000" points="836.0582,-1593.1806 637.0582,-1593.1806 637.0582,-1557.1806 836.0582,-1557.1806 836.0582,-1593.1806"/>
<text text-anchor="middle" x="736.5582" y="-1572.3806" font-family="Courier,monospace" font-size="11.00" fill="#000000">MutableIndexAccessInterface</text>
</g>
<!-- \\Psl\\Collection\\MutableAccessibleCollectionInterface&#45;&gt;\\Psl\\Collection\\MutableIndexAccessInterface -->
<g id="edge31" class="edge">
<title>\\Psl\\Collection\\MutableAccessibleCollectionInterface&#45;&gt;\\Psl\\Collection\\MutableIndexAccessInterface</title>
<path fill="none" stroke="#000000" d="M941.5705,-1539.2369C910.9572,-1544.6042 877.3119,-1550.503 846.2866,-1555.9425"/>
<polygon fill="none" stroke="#000000" points="845.558,-1552.5168 836.3127,-1557.6912 846.7669,-1559.4116 845.558,-1552.5168"/>
</g>
<!-- \\Psl\\Collection\\MutableCollectionInterface&#45;&gt;\\Psl\\Collection\\CollectionInterface -->
<g id="edge32" class="edge">
<title>\\Psl\\Collection\\MutableCollectionInterface&#45;&gt;\\Psl\\Collection\\CollectionInterface</title>
<path fill="none" stroke="#000000" d="M640.4927,-1521.1806C597.105,-1521.1806 546.355,-1521.1806 504.6995,-1521.1806"/>
<polygon fill="none" stroke="#000000" points="504.5904,-1517.6807 494.5904,-1521.1806 504.5904,-1524.6807 504.5904,-1517.6807"/>
</g>
<!-- \\Psl\\Collection\\MutableIndexAccessInterface&#45;&gt;\\Psl\\Collection\\IndexAccessInterface -->
<g id="edge33" class="edge">
<title>\\Psl\\Collection\\MutableIndexAccessInterface&#45;&gt;\\Psl\\Collection\\IndexAccessInterface</title>
<path fill="none" stroke="#000000" d="M637.0523,-1575.1806C595.7498,-1575.1806 548.2755,-1575.1806 508.4629,-1575.1806"/>
<polygon fill="none" stroke="#000000" points="508.2493,-1571.6807 498.2493,-1575.1806 508.2492,-1578.6807 508.2493,-1571.6807"/>
</g>
<!-- \\Psl\\Collection\\MutableMapInterface -->
<g id="node8" class="node">
<title>\\Psl\\Collection\\MutableMapInterface</title>
<polygon fill="none" stroke="#000000" points="1405.0582,-1512.1806 1260.0582,-1512.1806 1260.0582,-1476.1806 1405.0582,-1476.1806 1405.0582,-1512.1806"/>
<text text-anchor="middle" x="1332.5582" y="-1491.3806" font-family="Courier,monospace" font-size="11.00" fill="#000000">MutableMapInterface</text>
</g>
<!-- \\Psl\\Collection\\MutableMapInterface&#45;&gt;\\Psl\\Collection\\MapInterface -->
<g id="edge34" class="edge">
<title>\\Psl\\Collection\\MutableMapInterface&#45;&gt;\\Psl\\Collection\\MapInterface</title>
<path fill="none" stroke="#000000" d="M1259.8837,-1487.3674C1211.6504,-1482.8455 1149.1338,-1476.9846 1103.8994,-1472.7438"/>
<polygon fill="none" stroke="#000000" points="1103.9414,-1469.2325 1093.6583,-1471.7837 1103.2879,-1476.202 1103.9414,-1469.2325"/>
</g>
<!-- \\Psl\\Collection\\MutableMapInterface&#45;&gt;\\Psl\\Collection\\MutableAccessibleCollectionInterface -->
<g id="edge35" class="edge">
<title>\\Psl\\Collection\\MutableMapInterface&#45;&gt;\\Psl\\Collection\\MutableAccessibleCollectionInterface</title>
<path fill="none" stroke="#000000" d="M1259.8837,-1500.9939C1236.9071,-1503.1479 1210.6894,-1505.6058 1184.6426,-1508.0477"/>
<polygon fill="none" stroke="#000000" points="1184.305,-1504.5639 1174.6753,-1508.9821 1184.9584,-1511.5334 1184.305,-1504.5639"/>
</g>
<!-- \\Psl\\DataStructure\\PriorityQueueInterface -->
<g id="node9" class="node">
<title>\\Psl\\DataStructure\\PriorityQueueInterface</title>
<polygon fill="none" stroke="#000000" points="1415.0582,-1673.1806 1250.0582,-1673.1806 1250.0582,-1637.1806 1415.0582,-1637.1806 1415.0582,-1673.1806"/>
<text text-anchor="middle" x="1332.5582" y="-1652.3806" font-family="Courier,monospace" font-size="11.00" fill="#000000">PriorityQueueInterface</text>
</g>
<!-- \\Psl\\DataStructure\\QueueInterface -->
<g id="node10" class="node">
<title>\\Psl\\DataStructure\\QueueInterface</title>
<polygon fill="none" stroke="#000000" points="1100.0582,-1673.1806 989.0582,-1673.1806 989.0582,-1637.1806 1100.0582,-1637.1806 1100.0582,-1673.1806"/>
<text text-anchor="middle" x="1044.5582" y="-1652.3806" font-family="Courier,monospace" font-size="11.00" fill="#000000">QueueInterface</text>
</g>
<!-- \\Psl\\DataStructure\\PriorityQueueInterface&#45;&gt;\\Psl\\DataStructure\\QueueInterface -->
<g id="edge36" class="edge">
<title>\\Psl\\DataStructure\\PriorityQueueInterface&#45;&gt;\\Psl\\DataStructure\\QueueInterface</title>
<path fill="none" stroke="#000000" d="M1250.029,-1655.1806C1205.745,-1655.1806 1151.9126,-1655.1806 1110.4597,-1655.1806"/>
<polygon fill="none" stroke="#000000" points="1110.2009,-1651.6807 1100.2008,-1655.1806 1110.2008,-1658.6807 1110.2009,-1651.6807"/>
</g>
<!-- \\Psl\\DataStructure\\QueueInterface&#45;&gt;Countable -->
<g id="edge37" class="edge">
<title>\\Psl\\DataStructure\\QueueInterface&#45;&gt;Countable</title>
<path fill="none" stroke="#000000" d="M988.8628,-1664.9179C927.3459,-1674.9595 825.2472,-1689.5195 736.5582,-1692.1806"/>
<path fill="none" stroke="#000000" d="M736.5582,-1692.1806C532.9331,-1698.2905 292.2372,-1678.1954 178.5662,-1667.0692"/>
<polygon fill="none" stroke="#000000" points="178.5924,-1663.5548 168.2967,-1666.0544 177.904,-1670.5209 178.5924,-1663.5548"/>
</g>
<!-- \\Psl\\DataStructure\\StackInterface -->
<g id="node11" class="node">
<title>\\Psl\\DataStructure\\StackInterface</title>
<polygon fill="none" stroke="#000000" points="1388.0582,-1727.1806 1277.0582,-1727.1806 1277.0582,-1691.1806 1388.0582,-1691.1806 1388.0582,-1727.1806"/>
<text text-anchor="middle" x="1332.5582" y="-1706.3806" font-family="Courier,monospace" font-size="11.00" fill="#000000">StackInterface</text>
</g>
<!-- \\Psl\\DataStructure\\StackInterface&#45;&gt;Countable -->
<g id="edge38" class="edge">
<title>\\Psl\\DataStructure\\StackInterface&#45;&gt;Countable</title>
<path fill="none" stroke="#000000" d="M1276.6928,-1705.8805C1171.1671,-1700.026 935.276,-1688.7464 736.5582,-1692.1806"/>
</g>
<!-- \\Psl\\Exception\\InvalidArgumentException -->
<g id="node12" class="node">
<title>\\Psl\\Exception\\InvalidArgumentException</title>
<polygon fill="none" stroke="#000000" points="826.0582,-1351.1806 647.0582,-1351.1806 647.0582,-1315.1806 826.0582,-1315.1806 826.0582,-1351.1806"/>
<text text-anchor="middle" x="736.5582" y="-1330.3806" font-family="Courier,monospace" font-size="11.00" fill="#000000">InvalidArgumentException</text>
</g>
<!-- InvalidArgumentException -->
<g id="node37" class="node">
<title>InvalidArgumentException</title>
<ellipse fill="none" stroke="#000000" cx="422.0704" cy="-83.1806" rx="136.4758" ry="18"/>
<text text-anchor="middle" x="422.0704" y="-79.4806" font-family="Times,serif" font-size="14.00" fill="#c0c0c0">InvalidArgumentException</text>
</g>
<!-- \\Psl\\Exception\\InvalidArgumentException&#45;&gt;InvalidArgumentException -->
<g id="edge1" class="edge">
<title>\\Psl\\Exception\\InvalidArgumentException&#45;&gt;InvalidArgumentException</title>
<path fill="none" stroke="#000000" d="M682.8155,-1315.1374C663.5229,-1306.0611 643.3858,-1293.0864 630.5582,-1275.1806 489.8789,-1078.8081 433.7058,-273.3539 423.7356,-111.5633"/>
<polygon fill="none" stroke="#000000" points="427.221,-111.215 423.1211,-101.4456 420.2339,-111.6394 427.221,-111.215"/>
</g>
<!-- ExceptionInterface -->
<g id="node42" class="node">
<title>ExceptionInterface</title>
<ellipse fill="none" stroke="#000000" cx="112.8414" cy="-31.1806" rx="100.9827" ry="18"/>
<text text-anchor="middle" x="112.8414" y="-27.4806" font-family="Times,serif" font-size="14.00" fill="#000000">ExceptionInterface</text>
</g>
<!-- \\Psl\\Exception\\InvalidArgumentException&#45;&gt;ExceptionInterface -->
<g id="edge2" class="edge">
<title>\\Psl\\Exception\\InvalidArgumentException&#45;&gt;ExceptionInterface</title>
<path fill="none" stroke="#000000" stroke-dasharray="1,5" d="M680.0593,-1315.0918C661.1583,-1306.1378 642.0054,-1293.2582 630.5582,-1275.1806 485.0281,-1045.3559 745.2673,-251.0142 558.5582,-53.1806 516.6374,-8.7621 472.1782,-72.1028 422.0704,-37.1806"/>
</g>
<!-- \\Psl\\Exception\\InvariantViolationException -->
<g id="node13" class="node">
<title>\\Psl\\Exception\\InvariantViolationException</title>
<polygon fill="none" stroke="#000000" points="836.0582,-1405.1806 637.0582,-1405.1806 637.0582,-1369.1806 836.0582,-1369.1806 836.0582,-1405.1806"/>
<text text-anchor="middle" x="736.5582" y="-1384.3806" font-family="Courier,monospace" font-size="11.00" fill="#000000">InvariantViolationException</text>
</g>
<!-- \\Psl\\Exception\\RuntimeException -->
<g id="node14" class="node">
<title>\\Psl\\Exception\\RuntimeException</title>
<polygon fill="none" stroke="#000000" points="484.5704,-1351.1806 359.5704,-1351.1806 359.5704,-1315.1806 484.5704,-1315.1806 484.5704,-1351.1806"/>
<text text-anchor="middle" x="422.0704" y="-1330.3806" font-family="Courier,monospace" font-size="11.00" fill="#000000">RuntimeException</text>
</g>
<!-- \\Psl\\Exception\\InvariantViolationException&#45;&gt;\\Psl\\Exception\\RuntimeException -->
<g id="edge3" class="edge">
<title>\\Psl\\Exception\\InvariantViolationException&#45;&gt;\\Psl\\Exception\\RuntimeException</title>
<path fill="none" stroke="#000000" d="M637.0523,-1370.0947C590.9053,-1362.1709 537.0539,-1352.9242 494.7923,-1345.6675"/>
<polygon fill="none" stroke="#000000" points="495.3097,-1342.2052 484.8616,-1343.9624 494.125,-1349.1043 495.3097,-1342.2052"/>
</g>
<!-- RuntimeException -->
<g id="node38" class="node">
<title>RuntimeException</title>
<ellipse fill="none" stroke="#000000" cx="112.8414" cy="-1333.1806" rx="96.6831" ry="18"/>
<text text-anchor="middle" x="112.8414" y="-1329.4806" font-family="Times,serif" font-size="14.00" fill="#c0c0c0">RuntimeException</text>
</g>
<!-- \\Psl\\Exception\\RuntimeException&#45;&gt;RuntimeException -->
<g id="edge4" class="edge">
<title>\\Psl\\Exception\\RuntimeException&#45;&gt;RuntimeException</title>
<path fill="none" stroke="#000000" d="M359.4933,-1333.1806C319.4581,-1333.1806 266.4784,-1333.1806 219.8847,-1333.1806"/>
<polygon fill="none" stroke="#000000" points="219.739,-1329.6807 209.7389,-1333.1806 219.7389,-1336.6807 219.739,-1329.6807"/>
</g>
<!-- \\Psl\\Exception\\RuntimeException&#45;&gt;ExceptionInterface -->
<g id="edge5" class="edge">
<title>\\Psl\\Exception\\RuntimeException&#45;&gt;ExceptionInterface</title>
<path fill="none" stroke="#000000" stroke-dasharray="1,5" d="M359.3415,-1321.911C332.1691,-1313.6679 302.7132,-1299.4879 285.5825,-1275.1806 128.8764,-1052.8259 390.3452,-259.9494 213.5825,-53.1806 211.5649,-50.8206 209.3584,-48.6794 206.9976,-46.7381"/>
<polygon fill="none" stroke="#000000" points="208.6589,-43.6342 198.428,-40.8811 204.709,-49.4134 208.6589,-43.6342"/>
</g>
<!-- \\Psl\\Json\\Exception\\DecodeException -->
<g id="node15" class="node">
<title>\\Psl\\Json\\Exception\\DecodeException</title>
<polygon fill="none" stroke="#000000" points="1103.5582,-1127.1806 985.5582,-1127.1806 985.5582,-1091.1806 1103.5582,-1091.1806 1103.5582,-1127.1806"/>
<text text-anchor="middle" x="1044.5582" y="-1106.3806" font-family="Courier,monospace" font-size="11.00" fill="#000000">DecodeException</text>
</g>
<!-- \\Psl\\Json\\Exception\\DecodeException&#45;&gt;\\Psl\\Exception\\InvalidArgumentException -->
<g id="edge6" class="edge">
<title>\\Psl\\Json\\Exception\\DecodeException&#45;&gt;\\Psl\\Exception\\InvalidArgumentException</title>
<path fill="none" stroke="#000000" d="M1027.1238,-1127.4266C995.2877,-1160.0401 924.6399,-1229.2155 855.5582,-1275.1806 835.0568,-1288.8218 810.8711,-1301.2042 789.6765,-1310.9921"/>
<polygon fill="none" stroke="#000000" points="788.1455,-1307.8432 780.4853,-1315.1626 791.038,-1314.2177 788.1455,-1307.8432"/>
</g>
<!-- \\Psl\\Json\\Exception\\ExceptionInterface -->
<g id="node17" class="node">
<title>\\Psl\\Json\\Exception\\ExceptionInterface</title>
<polygon fill="none" stroke="#000000" points="805.5582,-1073.1806 667.5582,-1073.1806 667.5582,-1037.1806 805.5582,-1037.1806 805.5582,-1073.1806"/>
<text text-anchor="middle" x="736.5582" y="-1052.3806" font-family="Courier,monospace" font-size="11.00" fill="#000000">ExceptionInterface</text>
</g>
<!-- \\Psl\\Json\\Exception\\DecodeException&#45;&gt;\\Psl\\Json\\Exception\\ExceptionInterface -->
<g id="edge7" class="edge">
<title>\\Psl\\Json\\Exception\\DecodeException&#45;&gt;\\Psl\\Json\\Exception\\ExceptionInterface</title>
<path fill="none" stroke="#000000" stroke-dasharray="1,5" d="M985.5372,-1098.8328C937.2924,-1090.3743 868.6442,-1078.3385 815.6455,-1069.0466"/>
<polygon fill="none" stroke="#000000" points="816.0572,-1065.5654 805.603,-1067.2859 814.8483,-1072.4603 816.0572,-1065.5654"/>
</g>
<!-- \\Psl\\Json\\Exception\\EncodeException -->
<g id="node16" class="node">
<title>\\Psl\\Json\\Exception\\EncodeException</title>
<polygon fill="none" stroke="#000000" points="1103.5582,-1073.1806 985.5582,-1073.1806 985.5582,-1037.1806 1103.5582,-1037.1806 1103.5582,-1073.1806"/>
<text text-anchor="middle" x="1044.5582" y="-1052.3806" font-family="Courier,monospace" font-size="11.00" fill="#000000">EncodeException</text>
</g>
<!-- \\Psl\\Json\\Exception\\EncodeException&#45;&gt;\\Psl\\Exception\\InvalidArgumentException -->
<g id="edge8" class="edge">
<title>\\Psl\\Json\\Exception\\EncodeException&#45;&gt;\\Psl\\Exception\\InvalidArgumentException</title>
<path fill="none" stroke="#000000" d="M985.5404,-1054.6844C960.9002,-1057.4402 933.633,-1064.7829 914.5582,-1082.1806 848.2871,-1142.6253 913.8197,-1206.9821 855.5582,-1275.1806 842.4644,-1290.5077 824.3737,-1302.1406 806.2473,-1310.8115"/>
<polygon fill="none" stroke="#000000" points="804.4659,-1307.7755 796.7914,-1315.0797 807.3458,-1314.1557 804.4659,-1307.7755"/>
</g>
<!-- \\Psl\\Json\\Exception\\EncodeException&#45;&gt;\\Psl\\Json\\Exception\\ExceptionInterface -->
<g id="edge9" class="edge">
<title>\\Psl\\Json\\Exception\\EncodeException&#45;&gt;\\Psl\\Json\\Exception\\ExceptionInterface</title>
<path fill="none" stroke="#000000" stroke-dasharray="1,5" d="M985.5372,-1055.1806C937.2924,-1055.1806 868.6442,-1055.1806 815.6455,-1055.1806"/>
<polygon fill="none" stroke="#000000" points="815.6031,-1051.6807 805.603,-1055.1806 815.603,-1058.6807 815.6031,-1051.6807"/>
</g>
<!-- \\Psl\\Json\\Exception\\ExceptionInterface&#45;&gt;ExceptionInterface -->
<g id="edge39" class="edge">
<title>\\Psl\\Json\\Exception\\ExceptionInterface&#45;&gt;ExceptionInterface</title>
<path fill="none" stroke="#000000" d="M688.379,-1037.1163C666.9862,-1026.515 643.7145,-1010.8655 630.5582,-989.1806 522.3493,-810.8247 703.0973,-203.6083 558.5582,-53.1806 516.2411,-9.1395 472.1782,-72.1028 422.0704,-37.1806"/>
</g>
<!-- \\Psl\\Math\\Exception\\ArithmeticException -->
<g id="node18" class="node">
<title>\\Psl\\Math\\Exception\\ArithmeticException</title>
<polygon fill="none" stroke="#000000" points="1117.0582,-957.1806 972.0582,-957.1806 972.0582,-921.1806 1117.0582,-921.1806 1117.0582,-957.1806"/>
<text text-anchor="middle" x="1044.5582" y="-936.3806" font-family="Courier,monospace" font-size="11.00" fill="#000000">ArithmeticException</text>
</g>
<!-- \\Psl\\Math\\Exception\\ArithmeticException&#45;&gt;\\Psl\\Exception\\InvalidArgumentException -->
<g id="edge10" class="edge">
<title>\\Psl\\Math\\Exception\\ArithmeticException&#45;&gt;\\Psl\\Exception\\InvalidArgumentException</title>
<path fill="none" stroke="#000000" d="M1001.4012,-957.3189C972.5541,-971.6265 936.0775,-994.3293 914.5582,-1025.1806 849.2461,-1118.8161 926.856,-1186.0183 855.5582,-1275.1806 843.2132,-1290.6189 825.7311,-1302.2304 807.9573,-1310.8438"/>
<polygon fill="none" stroke="#000000" points="806.3105,-1307.7479 798.6618,-1315.0792 809.2129,-1314.1178 806.3105,-1307.7479"/>
</g>
<!-- \\Psl\\Math\\Exception\\ExceptionInterface -->
<g id="node20" class="node">
<title>\\Psl\\Math\\Exception\\ExceptionInterface</title>
<polygon fill="none" stroke="#000000" points="805.5582,-957.1806 667.5582,-957.1806 667.5582,-921.1806 805.5582,-921.1806 805.5582,-957.1806"/>
<text text-anchor="middle" x="736.5582" y="-936.3806" font-family="Courier,monospace" font-size="11.00" fill="#000000">ExceptionInterface</text>
</g>
<!-- \\Psl\\Math\\Exception\\ArithmeticException&#45;&gt;\\Psl\\Math\\Exception\\ExceptionInterface -->
<g id="edge11" class="edge">
<title>\\Psl\\Math\\Exception\\ArithmeticException&#45;&gt;\\Psl\\Math\\Exception\\ExceptionInterface</title>
<path fill="none" stroke="#000000" stroke-dasharray="1,5" d="M971.9566,-939.1806C925.0508,-939.1806 864.007,-939.1806 815.8369,-939.1806"/>
<polygon fill="none" stroke="#000000" points="815.7631,-935.6807 805.763,-939.1806 815.763,-942.6807 815.7631,-935.6807"/>
</g>
<!-- \\Psl\\Math\\Exception\\DivisionByZeroException -->
<g id="node19" class="node">
<title>\\Psl\\Math\\Exception\\DivisionByZeroException</title>
<polygon fill="none" stroke="#000000" points="1418.5582,-957.1806 1246.5582,-957.1806 1246.5582,-921.1806 1418.5582,-921.1806 1418.5582,-957.1806"/>
<text text-anchor="middle" x="1332.5582" y="-936.3806" font-family="Courier,monospace" font-size="11.00" fill="#000000">DivisionByZeroException</text>
</g>
<!-- \\Psl\\Math\\Exception\\DivisionByZeroException&#45;&gt;\\Psl\\Math\\Exception\\ArithmeticException -->
<g id="edge12" class="edge">
<title>\\Psl\\Math\\Exception\\DivisionByZeroException&#45;&gt;\\Psl\\Math\\Exception\\ArithmeticException</title>
<path fill="none" stroke="#000000" d="M1246.5389,-939.1806C1208.9655,-939.1806 1165.0696,-939.1806 1127.8153,-939.1806"/>
<polygon fill="none" stroke="#000000" points="1127.4946,-935.6807 1117.4945,-939.1806 1127.4945,-942.6807 1127.4946,-935.6807"/>
</g>
<!-- \\Psl\\Math\\Exception\\ExceptionInterface&#45;&gt;ExceptionInterface -->
<g id="edge40" class="edge">
<title>\\Psl\\Math\\Exception\\ExceptionInterface&#45;&gt;ExceptionInterface</title>
<path fill="none" stroke="#000000" d="M735.7057,-920.9064C729.9215,-805.3211 692.5331,-176.6498 558.5582,-53.1806 513.6455,-11.7897 472.1782,-72.1028 422.0704,-37.1806"/>
</g>
<!-- \\Psl\\Observer\\ObserverInterface -->
<g id="node21" class="node">
<title>\\Psl\\Observer\\ObserverInterface</title>
<polygon fill="none" stroke="#000000" points="1398.0582,-869.1806 1267.0582,-869.1806 1267.0582,-833.1806 1398.0582,-833.1806 1398.0582,-869.1806"/>
<text text-anchor="middle" x="1332.5582" y="-848.3806" font-family="Courier,monospace" font-size="11.00" fill="#000000">ObserverInterface</text>
</g>
<!-- \\Psl\\Observer\\SubjectInterface -->
<g id="node22" class="node">
<title>\\Psl\\Observer\\SubjectInterface</title>
<polygon fill="none" stroke="#000000" points="1395.0582,-815.1806 1270.0582,-815.1806 1270.0582,-779.1806 1395.0582,-779.1806 1395.0582,-815.1806"/>
<text text-anchor="middle" x="1332.5582" y="-794.3806" font-family="Courier,monospace" font-size="11.00" fill="#000000">SubjectInterface</text>
</g>
<!-- \\Psl\\Result\\ResultInterface -->
<g id="node23" class="node">
<title>\\Psl\\Result\\ResultInterface</title>
<polygon fill="none" stroke="#000000" points="1391.5582,-735.1806 1273.5582,-735.1806 1273.5582,-699.1806 1391.5582,-699.1806 1391.5582,-735.1806"/>
<text text-anchor="middle" x="1332.5582" y="-714.3806" font-family="Courier,monospace" font-size="11.00" fill="#000000">ResultInterface</text>
</g>
<!-- \\Psl\\SecureRandom\\Exception\\InsufficientEntropyException -->
<g id="node24" class="node">
<title>\\Psl\\SecureRandom\\Exception\\InsufficientEntropyException</title>
<polygon fill="none" stroke="#000000" points="839.5582,-1243.1806 633.5582,-1243.1806 633.5582,-1207.1806 839.5582,-1207.1806 839.5582,-1243.1806"/>
<text text-anchor="middle" x="736.5582" y="-1222.3806" font-family="Courier,monospace" font-size="11.00" fill="#000000">InsufficientEntropyException</text>
</g>
<!-- \\Psl\\SecureRandom\\Exception\\InsufficientEntropyException&#45;&gt;\\Psl\\Exception\\RuntimeException -->
<g id="edge13" class="edge">
<title>\\Psl\\SecureRandom\\Exception\\InsufficientEntropyException&#45;&gt;\\Psl\\Exception\\RuntimeException</title>
<path fill="none" stroke="#000000" d="M683.92,-1243.2574C628.8459,-1262.1707 542.4393,-1291.8441 484.0915,-1311.8816"/>
<polygon fill="none" stroke="#000000" points="482.939,-1308.5767 474.6179,-1315.135 485.2126,-1315.1972 482.939,-1308.5767"/>
</g>
<!-- \\Psl\\SecureRandom\\Exception\\ExceptionInterface -->
<g id="node25" class="node">
<title>\\Psl\\SecureRandom\\Exception\\ExceptionInterface</title>
<polygon fill="none" stroke="#000000" points="491.0704,-1243.1806 353.0704,-1243.1806 353.0704,-1207.1806 491.0704,-1207.1806 491.0704,-1243.1806"/>
<text text-anchor="middle" x="422.0704" y="-1222.3806" font-family="Courier,monospace" font-size="11.00" fill="#000000">ExceptionInterface</text>
</g>
<!-- \\Psl\\SecureRandom\\Exception\\InsufficientEntropyException&#45;&gt;\\Psl\\SecureRandom\\Exception\\ExceptionInterface -->
<g id="edge14" class="edge">
<title>\\Psl\\SecureRandom\\Exception\\InsufficientEntropyException&#45;&gt;\\Psl\\SecureRandom\\Exception\\ExceptionInterface</title>
<path fill="none" stroke="#000000" stroke-dasharray="1,5" d="M633.1476,-1225.1806C590.3283,-1225.1806 541.4521,-1225.1806 501.5223,-1225.1806"/>
<polygon fill="none" stroke="#000000" points="501.308,-1221.6807 491.308,-1225.1806 501.308,-1228.6807 501.308,-1221.6807"/>
</g>
<!-- \\Psl\\SecureRandom\\Exception\\ExceptionInterface&#45;&gt;ExceptionInterface -->
<g id="edge41" class="edge">
<title>\\Psl\\SecureRandom\\Exception\\ExceptionInterface&#45;&gt;ExceptionInterface</title>
<path fill="none" stroke="#000000" d="M352.9499,-1230.7035C328.2715,-1228.8339 302.4346,-1221.7575 285.5825,-1203.1806 113.5414,-1013.5322 380.3249,-247.504 213.5825,-53.1806 211.5606,-50.8243 209.3503,-48.6863 206.9863,-46.7478"/>
<polygon fill="none" stroke="#000000" points="208.6416,-43.6403 198.4077,-40.8985 204.6981,-49.4238 208.6416,-43.6403"/>
</g>
<!-- \\Psl\\Type\\Exception\\ExceptionInterface -->
<g id="node26" class="node">
<title>\\Psl\\Type\\Exception\\ExceptionInterface</title>
<polygon fill="none" stroke="#000000" points="1401.5582,-169.1806 1263.5582,-169.1806 1263.5582,-133.1806 1401.5582,-133.1806 1401.5582,-169.1806"/>
<text text-anchor="middle" x="1332.5582" y="-148.3806" font-family="Courier,monospace" font-size="11.00" fill="#000000">ExceptionInterface</text>
</g>
<!-- \\Psl\\Type\\Exception\\ExceptionInterface&#45;&gt;ExceptionInterface -->
<g id="edge42" class="edge">
<title>\\Psl\\Type\\Exception\\ExceptionInterface&#45;&gt;ExceptionInterface</title>
<path fill="none" stroke="#000000" d="M1266.4727,-133.1754C1238.3235,-126.0571 1205.0145,-118.3566 1174.5582,-113.1806 1164.2023,-111.4206 430.6883,-43.1868 422.0704,-37.1806"/>
<path fill="none" stroke="#000000" d="M422.0704,-37.1806C349.7754,13.3958 242.8906,1.5186 175.6033,-13.4762"/>
<polygon fill="none" stroke="#000000" points="174.5159,-10.1354 165.5639,-15.8021 176.0959,-16.9547 174.5159,-10.1354"/>
</g>
<!-- \\Psl\\Type\\Internal\\ArrayKeyType -->
<g id="node27" class="node">
<title>\\Psl\\Type\\Internal\\ArrayKeyType</title>
<polygon fill="none" stroke="#000000" points="1381.5582,-519.1806 1283.5582,-519.1806 1283.5582,-483.1806 1381.5582,-483.1806 1381.5582,-519.1806"/>
<text text-anchor="middle" x="1332.5582" y="-498.3806" font-family="Courier,monospace" font-size="11.00" fill="#000000">ArrayKeyType</text>
</g>
<!-- UnionType -->
<g id="node36" class="node">
<title>UnionType</title>
<ellipse fill="none" stroke="#000000" cx="1044.5582" cy="-1833.1806" rx="61.99" ry="18"/>
<text text-anchor="middle" x="1044.5582" y="-1829.4806" font-family="Times,serif" font-size="14.00" fill="#c0c0c0">UnionType</text>
</g>
<!-- \\Psl\\Type\\Internal\\ArrayKeyType&#45;&gt;UnionType -->
<g id="edge15" class="edge">
<title>\\Psl\\Type\\Internal\\ArrayKeyType&#45;&gt;UnionType</title>
<path fill="none" stroke="#000000" d="M1283.2486,-506.1236C1269.3076,-510.0048 1255.5101,-516.7057 1246.5582,-528.1806 1078.0083,-744.2352 1319.1544,-1526.4134 1174.5582,-1759.1806 1157.3965,-1786.8072 1125.9149,-1805.1133 1098.231,-1816.6066"/>
<polygon fill="none" stroke="#000000" points="1096.647,-1813.4688 1088.627,-1820.3919 1099.2138,-1819.9813 1096.647,-1813.4688"/>
</g>
<!-- \\Psl\\Type\\Internal\\BoolType -->
<g id="node28" class="node">
<title>\\Psl\\Type\\Internal\\BoolType</title>
<polygon fill="none" stroke="#000000" points="1368.0582,-249.1806 1297.0582,-249.1806 1297.0582,-213.1806 1368.0582,-213.1806 1368.0582,-249.1806"/>
<text text-anchor="middle" x="1332.5582" y="-228.3806" font-family="Courier,monospace" font-size="11.00" fill="#000000">BoolType</text>
</g>
<!-- \\Psl\\Type\\Type -->
<g id="node35" class="node">
<title>\\Psl\\Type\\Type</title>
<polygon fill="none" stroke="#000000" points="1086.5582,-357.1806 1002.5582,-357.1806 1002.5582,-321.1806 1086.5582,-321.1806 1086.5582,-357.1806"/>
<text text-anchor="start" x="1010.5582" y="-342.3806" font-family="Courier,monospace" font-size="11.00" fill="#000000">«abstract»</text>
<text text-anchor="start" x="1030.5582" y="-330.3806" font-family="Courier,monospace" font-size="11.00" fill="#000000">Type</text>
</g>
<!-- \\Psl\\Type\\Internal\\BoolType&#45;&gt;\\Psl\\Type\\Type -->
<g id="edge16" class="edge">
<title>\\Psl\\Type\\Internal\\BoolType&#45;&gt;\\Psl\\Type\\Type</title>
<path fill="none" stroke="#000000" d="M1296.7878,-241.7351C1281.2593,-246.4907 1262.9182,-252.3422 1246.5582,-258.1806 1194.8353,-276.6391 1136.7293,-300.2483 1096.1615,-317.2092"/>
<polygon fill="none" stroke="#000000" points="1094.6234,-314.0589 1086.7552,-321.1542 1097.3307,-320.5142 1094.6234,-314.0589"/>
</g>
<!-- \\Psl\\Type\\Internal\\IntType -->
<g id="node29" class="node">
<title>\\Psl\\Type\\Internal\\IntType</title>
<polygon fill="none" stroke="#000000" points="1364.5582,-465.1806 1300.5582,-465.1806 1300.5582,-429.1806 1364.5582,-429.1806 1364.5582,-465.1806"/>
<text text-anchor="middle" x="1332.5582" y="-444.3806" font-family="Courier,monospace" font-size="11.00" fill="#000000">IntType</text>
</g>
<!-- \\Psl\\Type\\Internal\\IntType&#45;&gt;\\Psl\\Type\\Type -->
<g id="edge17" class="edge">
<title>\\Psl\\Type\\Internal\\IntType&#45;&gt;\\Psl\\Type\\Type</title>
<path fill="none" stroke="#000000" d="M1300.507,-437.7607C1284.2465,-432.8195 1264.2447,-426.4924 1246.5582,-420.1806 1194.8353,-401.7221 1136.7293,-378.1129 1096.1615,-361.152"/>
<polygon fill="none" stroke="#000000" points="1097.3307,-357.847 1086.7552,-357.207 1094.6234,-364.3023 1097.3307,-357.847"/>
</g>
<!-- \\Psl\\Type\\Internal\\MixedType -->
<g id="node30" class="node">
<title>\\Psl\\Type\\Internal\\MixedType</title>
<polygon fill="none" stroke="#000000" points="1371.0582,-411.1806 1294.0582,-411.1806 1294.0582,-375.1806 1371.0582,-375.1806 1371.0582,-411.1806"/>
<text text-anchor="middle" x="1332.5582" y="-390.3806" font-family="Courier,monospace" font-size="11.00" fill="#000000">MixedType</text>
</g>
<!-- \\Psl\\Type\\Internal\\MixedType&#45;&gt;\\Psl\\Type\\Type -->
<g id="edge18" class="edge">
<title>\\Psl\\Type\\Internal\\MixedType&#45;&gt;\\Psl\\Type\\Type</title>
<path fill="none" stroke="#000000" d="M1294.0161,-385.954C1243.1189,-376.4107 1153.3121,-359.572 1096.4749,-348.915"/>
<polygon fill="none" stroke="#000000" points="1097.0831,-345.4681 1086.6093,-347.0652 1095.793,-352.3482 1097.0831,-345.4681"/>
</g>
<!-- \\Psl\\Type\\Internal\\NullType -->
<g id="node31" class="node">
<title>\\Psl\\Type\\Internal\\NullType</title>
<polygon fill="none" stroke="#000000" points="1368.0582,-357.1806 1297.0582,-357.1806 1297.0582,-321.1806 1368.0582,-321.1806 1368.0582,-357.1806"/>
<text text-anchor="middle" x="1332.5582" y="-336.3806" font-family="Courier,monospace" font-size="11.00" fill="#000000">NullType</text>
</g>
<!-- \\Psl\\Type\\Internal\\NullType&#45;&gt;\\Psl\\Type\\Type -->
<g id="edge19" class="edge">
<title>\\Psl\\Type\\Internal\\NullType&#45;&gt;\\Psl\\Type\\Type</title>
<path fill="none" stroke="#000000" d="M1296.9549,-339.1806C1246.6965,-339.1806 1154.6243,-339.1806 1096.665,-339.1806"/>
<polygon fill="none" stroke="#000000" points="1096.6105,-335.6807 1086.6105,-339.1806 1096.6105,-342.6807 1096.6105,-335.6807"/>
</g>
<!-- \\Psl\\Type\\Internal\\NumType -->
<g id="node32" class="node">
<title>\\Psl\\Type\\Internal\\NumType</title>
<polygon fill="none" stroke="#000000" points="1364.5582,-627.1806 1300.5582,-627.1806 1300.5582,-591.1806 1364.5582,-591.1806 1364.5582,-627.1806"/>
<text text-anchor="middle" x="1332.5582" y="-606.3806" font-family="Courier,monospace" font-size="11.00" fill="#000000">NumType</text>
</g>
<!-- \\Psl\\Type\\Internal\\NumType&#45;&gt;UnionType -->
<g id="edge20" class="edge">
<title>\\Psl\\Type\\Internal\\NumType&#45;&gt;UnionType</title>
<path fill="none" stroke="#000000" d="M1302.7338,-627.3611C1283.0658,-641.1311 1258.7603,-661.9592 1246.5582,-687.1806 1142.577,-902.1079 1301.4213,-1556.9145 1174.5582,-1759.1806 1157.2773,-1786.7328 1125.7932,-1805.0373 1098.1377,-1816.5484"/>
<polygon fill="none" stroke="#000000" points="1096.5578,-1813.4093 1088.5449,-1820.3407 1099.1313,-1819.9191 1096.5578,-1813.4093"/>
</g>
<!-- \\Psl\\Type\\Internal\\ScalarType -->
<g id="node33" class="node">
<title>\\Psl\\Type\\Internal\\ScalarType</title>
<polygon fill="none" stroke="#000000" points="1374.5582,-573.1806 1290.5582,-573.1806 1290.5582,-537.1806 1374.5582,-537.1806 1374.5582,-573.1806"/>
<text text-anchor="middle" x="1332.5582" y="-552.3806" font-family="Courier,monospace" font-size="11.00" fill="#000000">ScalarType</text>
</g>
<!-- \\Psl\\Type\\Internal\\ScalarType&#45;&gt;UnionType -->
<g id="edge21" class="edge">
<title>\\Psl\\Type\\Internal\\ScalarType&#45;&gt;UnionType</title>
<path fill="none" stroke="#000000" d="M1290.4506,-558.3747C1274.2192,-561.8565 1257.0682,-568.7456 1246.5582,-582.1806 1085.1002,-788.5749 1313.131,-1536.7736 1174.5582,-1759.1806 1157.3596,-1786.7842 1125.8772,-1805.0898 1098.2021,-1816.5886"/>
<polygon fill="none" stroke="#000000" points="1096.6194,-1813.4505 1088.6015,-1820.3761 1099.1883,-1819.9621 1096.6194,-1813.4505"/>
</g>
<!-- \\Psl\\Type\\Internal\\StringType -->
<g id="node34" class="node">
<title>\\Psl\\Type\\Internal\\StringType</title>
<polygon fill="none" stroke="#000000" points="1374.5582,-303.1806 1290.5582,-303.1806 1290.5582,-267.1806 1374.5582,-267.1806 1374.5582,-303.1806"/>
<text text-anchor="middle" x="1332.5582" y="-282.3806" font-family="Courier,monospace" font-size="11.00" fill="#000000">StringType</text>
</g>
<!-- \\Psl\\Type\\Internal\\StringType&#45;&gt;\\Psl\\Type\\Type -->
<g id="edge22" class="edge">
<title>\\Psl\\Type\\Internal\\StringType&#45;&gt;\\Psl\\Type\\Type</title>
<path fill="none" stroke="#000000" d="M1290.3721,-293.0905C1239.0394,-302.7154 1152.366,-318.9667 1096.8459,-329.3767"/>
<polygon fill="none" stroke="#000000" points="1096.0409,-325.9665 1086.8572,-331.2496 1097.331,-332.8467 1096.0409,-325.9665"/>
</g>
</g>
</svg>
